<?xml version="1.0" standalone="no"?>
<!DOCTYPE svg PUBLIC "-//W3C//DTD SVG 20010904//EN"
 "http://www.w3.org/TR/2001/REC-SVG-20010904/DTD/svg10.dtd">
<svg version="1.0" xmlns="http://www.w3.org/2000/svg"
 width="742.000000pt" height="432.000000pt" viewBox="0 0 742.000000 432.000000"
 preserveAspectRatio="xMidYMid meet">
<metadata>
Created by potrace 1.15, written by Peter Selinger 2001-2017
</metadata>
<g transform="translate(0.000000,432.000000) scale(0.100000,-0.100000)"
fill="#000000" stroke="none">
<path d="M20 1885 l0 -1885 3690 0 3690 0 0 130 0 130 -2550 0 -2550 0 0 525
0 525 1040 0 1040 0 0 125 0 125 -1040 0 -1040 0 0 980 0 980 2550 0 2550 0 0
125 0 125 -3690 0 -3690 0 0 -1885z m3175 1755 l0 -75 -55 0 -55 0 -3 57 c-4
72 19 101 76 96 l37 -3 0 -75z m-2112 -170 c4 -4 9 -33 10 -66 l2 -59 -47 -3
c-31 -2 -48 1 -48 8 0 7 -12 10 -27 8 -27 -3 -28 -1 -31 50 -4 72 6 82 76 75
31 -3 61 -9 65 -13z m1207 -199 c0 -22 -6 -44 -15 -51 -8 -7 -15 -23 -15 -35
0 -12 7 -28 15 -35 13 -11 15 -185 15 -1451 l0 -1439 -780 0 -780 0 0 1525 0
1525 780 0 780 0 0 -39z m-1805 -1501 l0 -85 -43 -3 c-33 -2 -42 -7 -38 -18 3
-8 9 -21 12 -29 5 -12 -4 -15 -46 -15 -38 0 -51 3 -47 13 20 47 20 46 -25 49
l-43 3 -3 74 c-2 41 -1 80 2 88 4 11 30 13 118 11 l113 -3 0 -85z m-35 -730
c0 -3 -38 -29 -85 -57 l-85 -53 0 110 0 110 85 -52 c47 -29 85 -55 85 -58z m0
-382 c0 -4 -16 -4 -35 -1 -23 4 -35 2 -35 -6 0 -6 -9 -11 -21 -11 -14 0 -19
-5 -17 -17 3 -18 -9 -35 -44 -62 -17 -13 -18 -7 -18 98 l0 111 85 -52 c47 -29
85 -56 85 -60z m2600 -533 l0 -105 -1000 0 -1000 0 0 105 0 105 1000 0 1000 0
0 -105z"/>
<path d="M270 1770 l0 -70 100 0 100 0 0 70 0 70 -100 0 -100 0 0 -70z"/>
<path d="M6460 1435 l0 -125 470 0 470 0 0 125 0 125 -470 0 -470 0 0 -125z"/>
</g>
</svg>
